<?xml version="1.0" encoding="utf-8"?>
<!-- Uploaded to: SVG Repo, www.svgrepo.com, Generator: SVG Repo Mixer Tools -->
<svg width="800px" height="800px" viewBox="0 0 32 32" xmlns="http://www.w3.org/2000/svg" xmlns:xlink="http://www.w3.org/1999/xlink">
  <defs>
    <clipPath id="clip-folders">
      <rect width="32" height="32"/>
    </clipPath>
  </defs>
  <g id="folders" clip-path="url(#clip-folders)">
    <g id="Group_3059" data-name="Group 3059" transform="translate(-104 -156)">
      <g id="Group_3058" data-name="Group 3058">
        <g id="Group_3057" data-name="Group 3057">
          <g id="Group_3056" data-name="Group 3056">
            <path id="Path_3976" data-name="Path 3976" d="M133.274,162.092h-9.587v-.319a2.023,2.023,0,0,0-2.02-2.021H111.083a2.024,2.024,0,0,0-2.021,2.021v1.642h-2.354a2.023,2.023,0,0,0-2.021,2.021V182.21a2.041,2.041,0,0,0,2.039,2.038H128.9a2.04,2.04,0,0,0,2.038-2.038v-1.625h2.337a2.04,2.04,0,0,0,2.038-2.038V164.13A2.04,2.04,0,0,0,133.274,162.092ZM106.687,182.21V167.793l.021-2.378h3.354l7.25.021v1.319a1,1,0,0,0,1,1l10.625.038-.038,14.455Zm26.587-3.625h-2.337V167.793a2.04,2.04,0,0,0-2.038-2.038h-9.587v-.319a2.022,2.022,0,0,0-2.02-2.021h-6.223l.014-1.663,10.6.021v1.319a1,1,0,0,0,1,1h10.587l.038.038Z" fill="#344952"/>
          </g>
        </g>
      </g>
    </g>
  </g>
</svg>