<?xml version="1.0" encoding="utf-8"?>
<!-- Generator: Adobe Illustrator 27.1.1, SVG Export Plug-In . SVG Version: 6.00 Build 0)  -->
<svg version="1.1" id="Layer_1" xmlns="http://www.w3.org/2000/svg" xmlns:xlink="http://www.w3.org/1999/xlink" x="0px" y="0px"
	 viewBox="0 0 257.95 62.36" style="enable-background:new 0 0 257.95 62.36;" xml:space="preserve">
<style type="text/css">
	.st0{fill:#BC245D;}
	.st1{fill:var(--color-text-primary);}
</style>
<path class="st0" d="M52.43,52.59C52.43,52.59,52.43,52.6,52.43,52.59L52.43,52.59L52.43,52.59z M52.43,52.59
	c0,0,0.08,0.03,0.13,0.05l-0.12-0.02C52.43,52.61,52.43,52.59,52.43,52.59z M52.61,52.56v0.02v0.01l-0.08-0.02
	C52.57,52.56,52.61,52.56,52.61,52.56z M52.47,52.41l0.08,0.04l0.02,0.02c0,0-0.07,0.06-0.11,0.1l-0.03-0.01
	c0,0,0.02-0.09,0.02-0.15L52.47,52.41z M53.43,39.96l-0.44,0.57c-5.81,7.46-16.94,11.11-27.61,9.06
	c-6.22-1.19-12.06-4.54-15.51-8.91c-0.09-0.11-0.14-0.18-0.22-0.27L9.6,40.33H9.32v0.19c0,0.2,0,0.35,0.03,0.6
	c0.04,1.08,0.11,2.52,0.18,3.99c0.07,1.48,0.15,2.99,0.22,4.19c0.03,0.6,0.07,1.14,0.11,1.54c0.03,0.41,0.05,0.67,0.07,0.78v0.02
	l0.01,0.01c0.98,3.17,3.87,5.6,7.68,7.27c3.82,1.67,8.59,2.59,13.37,2.73c4.78,0.14,9.59-0.51,13.5-1.99
	c3.91-1.48,6.94-3.79,8.11-7.01h0.01c0,0,0-0.01,0-0.01c0-0.01,0.01-0.02,0.01-0.02c0-0.01,0-0.01,0-0.02
	c0.01-0.02,0.01-0.04,0.02-0.08c0.01-0.06,0.02-0.15,0.03-0.25c0.03-0.21,0.04-0.48,0.06-0.79c0.04-0.63,0.08-1.44,0.13-2.28
	c0.08-1.68,0.15-3.47,0.2-4.18c0.09-1.42,0.22-3.3,0.28-4.19v-0.01L53.43,39.96z M23.88,35.94c0.07,0,0.14,0.01,0.22,0.02
	c0.03,0.01,0.02,0.01,0.03,0.01c0.05,0.01,0.11,0.02,0.16,0.04c0.03,0.01,0.05,0.01,0.07,0.02c0.03,0.01,0.03,0.01,0.03,0.01
	c0.02,0.01,0.04,0.02,0.07,0.02c0.02,0,0.02,0,0.03,0.01c0.03,0.01,0.05,0.02,0.07,0.03c0.03,0.01,0.03,0.01,0.03,0.01
	c0.03,0.01,0.06,0.02,0.08,0.04l0.03,0.01c0.03,0.01,0.06,0.02,0.1,0.04c0.04,0.02,0.08,0.03,0.12,0.05
	c0.02,0.01,0.02,0.01,0.03,0.01l0.09-0.02l0.05,0.02c0.03,0,0.03,0.01,0.03,0.01c0.04,0.02,0.08,0.04,0.12,0.06
	c0.02,0.01,0.03,0.01,0.03,0.01c0.04,0.02,0.08,0.04,0.12,0.07c0.02,0.01,0.05,0.03,0.08,0.04c0.03,0.02,0.05,0.03,0.08,0.05
	c0.02,0.01,0.02,0,0.02,0.01c0.03,0.01,0.03,0.02,0.06,0.03c0.03,0.01,0.03,0.01,0.03,0.02c0,0,0.03,0.01,0.03,0.01
	c0.2,0.13,0.31,0.25,0.39,0.41c0.03,0.04,0.03,0.09,0.04,0.13c0.03,0.08,0.03,0.16,0.04,0.25c0,0.11-0.03,0.22-0.07,0.35
	c-0.04,0.14-0.11,0.27-0.18,0.42c-0.03,0.03-0.03,0.06-0.04,0.08c0,0,0,0.01-0.03,0.02c-0.03,0.03-0.03,0.06-0.05,0.08
	c-0.03,0.02-0.03,0.03-0.03,0.04v0.01c-0.03,0.02-0.03,0.03-0.03,0.04c-0.03,0.03-0.03,0.05-0.05,0.08c0,0,0,0.01-0.03,0.02
	c-0.03,0.03-0.03,0.05-0.05,0.08c-0.07,0.14-0.16,0.27-0.25,0.39c-0.08,0.11-0.16,0.19-0.25,0.27c-0.07,0.05-0.15,0.09-0.23,0.12
	c-0.05,0.02-0.09,0.03-0.14,0.05c-0.18,0.04-0.36,0.03-0.59-0.04c0,0-0.02-0.01-0.02,0c-0.02-0.01-0.02-0.01-0.03-0.01
	c-0.02-0.01-0.04-0.01-0.06-0.02l-0.02-0.01c-0.03-0.01-0.06-0.02-0.09-0.03c-0.03-0.01-0.05-0.02-0.08-0.03
	c-0.05-0.02-0.09-0.03-0.14-0.06c-0.03-0.01-0.03-0.01-0.03-0.01c-0.04-0.01-0.08-0.03-0.12-0.05c-0.02-0.01-0.02-0.01-0.02-0.01
	l-0.03-0.01l-0.02-0.01c-0.03-0.01-0.02-0.01-0.03-0.01c-0.04-0.02-0.08-0.03-0.11-0.06c-0.03-0.01-0.06-0.03-0.09-0.05
	c0,0,0,0-0.03,0c-0.03-0.02-0.05-0.03-0.08-0.04c-0.03-0.01-0.03-0.01-0.03-0.01c-0.03-0.01-0.05-0.02-0.07-0.04
	c-0.03-0.01-0.02-0.01-0.03-0.01c-0.03-0.01-0.05-0.03-0.07-0.04l-0.02-0.01c-0.03-0.01-0.04-0.02-0.06-0.04l-0.03-0.01
	c-0.04-0.03-0.09-0.06-0.12-0.09c-0.02-0.01-0.03-0.01-0.03-0.02c-0.12-0.09-0.2-0.2-0.26-0.31c-0.04-0.06-0.06-0.13-0.06-0.2
	c-0.03-0.08-0.03-0.17,0-0.27c0.02-0.18,0.09-0.34,0.23-0.63l0.07-0.13c0,0,0,0,0-0.01c0.03-0.03,0.03-0.06,0.05-0.08
	c0.03-0.02,0.03-0.03,0.03-0.05c0.03-0.02,0.02-0.03,0.03-0.04c0.03-0.03,0.03-0.06,0.05-0.08c0,0,0-0.01,0-0.01
	c0.03-0.04,0.04-0.09,0.07-0.13c0.17-0.28,0.26-0.43,0.4-0.55c0.08-0.06,0.16-0.12,0.24-0.15c0.07-0.03,0.14-0.06,0.21-0.08
	C23.73,35.95,23.8,35.95,23.88,35.94L23.88,35.94z M48.4,35.56c0.02,0,0.04,0,0.07,0c0.18,0.01,0.34,0.07,0.49,0.17
	c0.44,0.29,0.56,0.89,0.27,1.33c-6.54,9.74-20.64,8.22-20.64,8.22c-0.53-0.05-0.93-0.53-0.88-1.06c0.06-0.53,0.53-0.92,1.07-0.87
	c0,0,13.06,1.2,18.82-7.36C47.78,35.73,48.08,35.57,48.4,35.56z M24.21,34.65c-1,0.06-1.93,0.58-2.5,1.47
	c-0.43,0.68-0.52,1.08-0.41,1.97c0.03,0.31,0.04,0.54-0.02,0.82c-0.07,0.28-0.19,0.61-0.41,1.15c-0.14,0.35-0.32,0.78-0.47,1.18
	c-0.03,0.02-0.03,0.02,0,0.04c0.05,0.03,0.11,0.07,0.21,0.13c0.25,0.14,0.66,0.33,1.27,0.61c0.45,0.21,0.88,0.39,1.19,0.51
	c0.16,0.06,0.29,0.11,0.37,0.14c0.05-0.06,0.09-0.13,0.16-0.22c0.14-0.19,0.33-0.46,0.52-0.74c0.33-0.48,0.52-0.75,0.72-0.96
	c0.2-0.2,0.41-0.32,0.69-0.46c0.7-0.34,1.38-0.95,1.62-1.4c0.77-1.44,0.13-3.28-1.36-3.96l0-0.01c-0.37-0.17-0.76-0.26-1.15-0.29
	C24.5,34.63,24.35,34.63,24.21,34.65L24.21,34.65z M32.59,34.63l-0.06,0.03c0,0,0.01,0.02,0.01,0.02c0,0,0,0.01,0,0.01
	s0.02,0,0.02,0.01C32.57,34.7,32.6,34.64,32.59,34.63L32.59,34.63z M24.54,33.11c0.62,0.01,1.25,0.13,1.87,0.4l0.22,0.09v0.01
	c0.03,0.02,0.07,0.03,0.1,0.05c2.11,1.11,2.9,3.43,1.9,5.57c-0.48,1.03-1.04,1.64-2.06,2.2c-0.55,0.31-0.66,0.42-1.27,1.28
	c-0.3,0.43-0.55,0.75-0.81,1c-0.25,0.25-0.53,0.41-0.85,0.47c-0.64,0.1-1.33-0.2-2.54-0.75c-0.54-0.25-0.96-0.45-1.27-0.62
	c-0.31-0.17-0.5-0.29-0.62-0.43c-0.27-0.31-0.41-0.66-0.38-1.09c0.03-0.44,0.23-0.96,0.56-1.74c0.3-0.71,0.34-0.9,0.29-1.33
	C19.34,35.36,21.84,33.09,24.54,33.11z M19.97,23.93l-0.16,0.43l-0.08,0.47l0.1,0.13c0.16,0.23,0.64,0.84,1.07,1.39
	c0.21,0.27,0.42,0.53,0.57,0.73h0.01c0.07,0.09,0.12,0.16,0.17,0.21c0.03-0.03,0.06-0.06,0.1-0.11v-0.01
	c0.11-0.14,0.26-0.34,0.41-0.56l0.61-0.86h0.77c0.23,0,0.34-0.01,0.45-0.02c0.01,0,0.02-0.01,0.02-0.01
	c0.11-0.18,0.27-0.33,0.48-0.38c0.17-0.05,0.4-0.06,0.64-0.06c0.24,0,0.48,0.02,0.63,0.06c0.26,0.07,0.46,0.23,0.57,0.48
	c0.06,0.15,0.1,0.32,0.1,0.65c0,0.21,0,0.44-0.03,0.59c-0.03,0.25-0.14,0.44-0.3,0.57c-0.14,0.11-0.31,0.17-0.54,0.19
	c-0.04,0-0.14,0.01-0.24,0.01c-0.05,0-0.1,0.01-0.14,0.01c-0.03,0-0.08,0-0.08,0c0,0-0.04-0.01-0.06-0.01l-0.08,0
	c-0.39-0.02-0.59-0.07-0.77-0.22h-0.01c-0.09-0.07-0.15-0.18-0.2-0.29c-0.02-0.01-0.05-0.01-0.06-0.01h-0.24l-0.46,0.65l-0.44,0.62
	l0.09,0.11l0.11,0.14h5.16l0.21,0.17c0.1,0.09,0.97,0.84,1.96,1.69c0.98,0.85,1.93,1.68,2.1,1.82l0.23,0.19l1.22-0.93
	c0.36-0.28,0.69-0.53,0.94-0.71c0.12-0.09,0.22-0.17,0.29-0.22c0.02-0.02,0.04-0.03,0.07-0.05V30.8c0,0,0.01,0,0.01-0.01
	c0,0,0,0,0.01,0l0.01-0.01c0,0,0.02-0.01,0.02-0.01l0.01,0l0.02-0.01c0,0,0.01,0,0.01,0c0,0,0,0,0.01,0l0.01-0.01c0,0,0.01,0,0.01,0
	c0,0,0.01,0,0.01,0c0.01,0,0.02,0,0.02,0h0.02l0.03,0l0.05,0l0.04,0.02c0,0,0,0,0.01,0c0,0,0.01,0.01,0.01,0.01l0.05,0.07v0.44
	c0,0.25,0.02,0.61,0.02,0.99v1.33l1.93,1.49c0.54,0.42,1.04,0.81,1.41,1.09c0.09,0.07,0.14,0.1,0.21,0.16
	c-0.14-0.26-0.32-0.61-0.52-1c-0.41-0.78-0.81-1.52-0.89-1.67l-0.18-0.37l3.03-2.12c1.38-0.96,2.18-1.53,2.64-1.88
	c0.21-0.16,0.33-0.28,0.41-0.36c0,0,0,0-0.01,0c-0.16,0-0.4-0.01-0.69-0.01c-0.58-0.01-1.39-0.01-2.28-0.01h-3.31l-0.49-0.84
	l-0.4-0.69l-2.41-0.01l-2.24-0.01h-0.01c0.07,0.12,0.22,0.38,0.34,0.57l0.17,0.29h0.47c0.14,0,0.22,0,0.31-0.01
	c0.1-0.12,0.24-0.23,0.41-0.28c0.16-0.05,0.4-0.05,0.64-0.05c0.24,0,0.48,0.01,0.63,0.05c0.26,0.07,0.46,0.24,0.57,0.49
	c0.07,0.16,0.07,0.32,0.1,0.64v0.01c0,0.21,0,0.44-0.02,0.59c-0.03,0.25-0.14,0.44-0.31,0.57h0c-0.14,0.11-0.31,0.17-0.54,0.2h0
	c-0.04,0-0.14,0.01-0.24,0.01c-0.05,0-0.1,0.01-0.14,0.01c-0.04,0-0.08,0-0.09,0c0,0-0.04-0.01-0.06-0.01h0h-0.07
	c-0.4-0.01-0.6-0.07-0.78-0.22c-0.1-0.08-0.17-0.19-0.22-0.32h-0.49c-0.42,0-0.66,0-0.82-0.02c-0.08-0.01-0.13-0.02-0.18-0.03
	c-0.06-0.02-0.11-0.05-0.13-0.08l-0.01-0.01c-0.02-0.02-0.02-0.03-0.02-0.03l-0.01-0.01l-0.01-0.01c-0.02-0.03-0.02-0.06-0.04-0.09
	l0,0c-0.04-0.07-0.1-0.17-0.17-0.28c-0.14-0.24-0.33-0.55-0.52-0.88l-0.66-1.13l-0.4-0.01l-0.56-0.01l-1.02-1.76l-0.94-1.62
	l-3.48-0.02L19.97,23.93z M14.74,21.01c0.22,0,0.43,0.08,0.61,0.22c0.42,0.34,0.47,0.95,0.12,1.36c0,0-1.62,1.96-2.27,4.81
	c-0.66,2.85-0.43,6.46,3.54,10.17c0.39,0.36,0.41,0.98,0.04,1.36c-0.37,0.39-0.98,0.41-1.38,0.04c-4.43-4.12-4.88-8.66-4.11-12
	c0.77-3.34,2.68-5.62,2.68-5.62C14.17,21.13,14.45,21.01,14.74,21.01z M21.44,20.47l-0.46,0.49l-0.48,0.49l-0.1,0.4v0
	c-0.03,0.12-0.05,0.23-0.08,0.32l-0.01,0.01c0.02,0,0.03,0,0.06,0c0.16,0,0.39,0.01,0.71,0.01c0.63,0.01,1.59,0.02,2.88,0.02
	l3.9,0.01L28.89,24l0.94,1.62h7.49l0.33,0.58c0.16,0.27,0.38,0.63,0.48,0.8l0.15,0.23h6.29l0.49-0.77l0.44-0.72l-1.78-0.02
	L41.9,25.7c-0.05,0.11-0.1,0.21-0.2,0.28c-0.14,0.11-0.3,0.17-0.54,0.2h0c-0.04,0-0.14,0.01-0.24,0.01c-0.05,0-0.1,0.01-0.13,0.01
	c-0.04,0-0.08,0-0.09,0c0,0-0.04-0.01-0.06-0.01h-0.01h-0.07c-0.39-0.01-0.59-0.07-0.77-0.22c-0.17-0.13-0.27-0.33-0.3-0.58
	c-0.03-0.17-0.06-0.46-0.03-0.69c0.01-0.3,0.05-0.44,0.12-0.6h0c0.11-0.21,0.3-0.36,0.53-0.42c0.16-0.05,0.4-0.06,0.64-0.06
	c0.24,0,0.47,0.02,0.63,0.06c0.22,0.06,0.38,0.21,0.49,0.4c0.03,0,0.04,0.01,0.07,0.01c0.25,0.01,0.72,0.01,1.61,0.01
	c0.51,0,0.97-0.01,1.31-0.01c0.17,0,0.31-0.01,0.4-0.01h0.01c-0.01-0.04-0.01-0.08-0.02-0.13l-0.01-0.01
	c-0.04-0.17-0.1-0.41-0.16-0.66c-0.07-0.26-0.14-0.52-0.19-0.73c-0.05-0.21-0.09-0.37-0.11-0.42v0l-0.03-0.11h-5.43l-0.46,0.79
	c-0.14,0.24-0.27,0.47-0.38,0.64v0.01c-0.05,0.09-0.1,0.16-0.13,0.21v0.01h0c-0.04,0.05-0.05,0.08-0.09,0.11l0,0.01
	c-0.02,0.02-0.04,0.04-0.08,0.06h-0.01c-0.04,0.02-0.07,0.02-0.12,0.03h-0.01c-0.09,0.01-0.24,0.02-0.49,0.03
	c-0.5,0.01-1.4,0.01-3.1,0.01h-3.7l-0.17-0.25c-0.04-0.07-0.17-0.28-0.35-0.59c-0.18-0.32-0.42-0.72-0.67-1.15h-0.01l-0.85-1.47
	h-3.64L21.44,20.47z M34.65,15.56l-1.83,0.16c-0.99,0.1-2.54,0.25-3.43,0.34l-1.6,0.15l-1.45,0.69c-0.81,0.39-1.75,0.83-2.08,0.99
	c-0.57,0.27-0.58,0.28-1,0.73c-0.1,0.11-0.19,0.21-0.26,0.29c0.17,0.01,0.42,0.01,0.73,0.01c0.62,0.01,1.48,0.01,2.43,0.02h3.53
	l0.18,0.34c0.03,0.05,0.06,0.09,0.08,0.12c0.03-0.03,0.05-0.07,0.08-0.11c0.09-0.12,0.21-0.31,0.35-0.5l0.53-0.76h4.26
	c0.11-0.18,0.27-0.34,0.49-0.39v0.01c0.15-0.04,0.35-0.05,0.56-0.06v-0.01h0.07c0.24,0,0.48,0.02,0.63,0.06h0.01
	c0.26,0.07,0.46,0.24,0.56,0.48c0.06,0.16,0.07,0.32,0.09,0.64v0.01c0,0.21,0.01,0.44-0.02,0.6v0c-0.03,0.25-0.15,0.43-0.31,0.57h0
	c-0.14,0.11-0.3,0.17-0.53,0.19c-0.05,0-0.15,0.02-0.25,0.02c-0.05,0-0.1,0-0.14,0c-0.04,0-0.07,0-0.08,0c0,0-0.07,0-0.15,0
	c-0.39-0.02-0.59-0.07-0.78-0.22c-0.09-0.08-0.16-0.19-0.21-0.31h-3.36l-0.44,0.61c-0.13,0.18-0.24,0.36-0.34,0.49h0
	c-0.05,0.06-0.07,0.11-0.1,0.16c0,0,0.01,0.01,0.01,0.02v0c0.03,0.05,0.05,0.09,0.08,0.14v0.01c0.07,0.12,0.16,0.29,0.25,0.45
	c0.1,0.17,0.19,0.34,0.28,0.47c0.06,0.12,0.12,0.19,0.14,0.23c0.02,0,0.05,0,0.09,0.01h0.01c0.1,0,0.24,0.01,0.46,0.02
	c0.44,0.01,1.16,0.01,2.29,0l2.79-0.02l0.5-0.85l0.58-1l3.1-0.02c1.39,0,2.15,0,2.54-0.02c0.17-0.01,0.25-0.02,0.31-0.02V20.3
	c-0.01-0.06-0.02-0.12-0.05-0.19v-0.01c-0.03-0.16-0.1-0.36-0.15-0.56c-0.06-0.19-0.12-0.38-0.16-0.53
	c-0.02-0.08-0.04-0.14-0.06-0.16l-0.01-0.02v-0.01c0,0,0-0.01-0.01-0.01c0,0-0.01,0-0.01-0.01c0,0,0,0-0.01-0.01h-0.01
	c-0.02-0.01-0.07-0.03-0.1-0.04l-0.01,0c-0.08-0.04-0.2-0.08-0.32-0.12c-0.25-0.08-2.31-0.81-4.61-1.61L34.65,15.56z M34.86,13.91
	l5.22,1.78c1.4,0.49,2.67,0.94,3.6,1.27c0.47,0.17,0.85,0.3,1.12,0.4c0.14,0.05,0.23,0.09,0.31,0.11h0.01
	c0.08,0.03,0.09,0.04,0.11,0.04l0.02,0.02c0.03,0.01,0.04,0.04,0.04,0.05h0.01l0.02,0.02l0.01,0.02c0.02,0.04,0.01,0.03,0.02,0.05
	l0,0l0.01,0.01c0.04,0.07,0.06,0.14,0.09,0.24c0.07,0.2,0.15,0.49,0.25,0.88c0.16,0.62,0.38,1.47,0.49,1.89
	c0.11,0.41,0.45,1.74,0.77,2.95l0.58,2.26l-1.38,2.24l-1.37,2.21l-2.54,1.78c-0.69,0.49-1.32,0.93-1.79,1.26
	c-0.23,0.16-0.41,0.29-0.55,0.39l0,0.01c-0.05,0.04-0.09,0.07-0.12,0.09c0.01,0.02,0.01,0.05,0.03,0.08
	c0.06,0.11,0.13,0.27,0.24,0.47c0.2,0.4,0.48,0.93,0.79,1.52c0.32,0.59,0.6,1.12,0.81,1.51c0.1,0.19,0.19,0.35,0.25,0.46v0.01
	c0.03,0.06,0.04,0.1,0.05,0.11c0.01,0.01,0.02,0.01,0.03,0.03c0.01,0.02,0.01,0.05,0.01,0.06v0.12l-0.05,0.02v0.01l-0.02,0
	l-0.07,0.03h-0.04c0,0-0.01,0-0.02,0.01h-0.01c-0.02,0-0.05,0-0.09,0c-0.07,0.01-0.17,0.01-0.3,0.01c-0.26,0.01-0.61,0.01-1,0.01
	h-1.46l-2.48-1.94l-2.5-1.94l-0.03-0.41l-0.01-0.09l-0.44,0.33c-0.18,0.13-0.35,0.25-0.48,0.34c-0.06,0.04-0.12,0.07-0.16,0.09
	c-0.01,0.01-0.02,0.01-0.04,0.02l0,0.01c0,0-0.02,0.01-0.03,0.01c0,0,0,0-0.01,0c0,0,0,0-0.01,0c-0.01,0-0.01,0.01-0.02,0.01h0
	c-0.01,0-0.02,0-0.02,0v0.01c-0.01,0-0.01,0-0.01,0c-0.01,0-0.01,0-0.01,0h0l-0.03-0.01H32.6l-0.01-0.01l-0.01,0
	c-0.01,0-0.01,0-0.01-0.01h-0.01l-0.07-0.01V34.7v0l-0.01-0.02c-0.01-0.01-0.03-0.02-0.04-0.02l-0.01-0.01l0-0.01
	c-0.06-0.04-0.13-0.1-0.23-0.18v0c-0.19-0.16-0.47-0.39-0.83-0.69c-0.71-0.6-1.75-1.49-3.04-2.6l-0.69-0.59l-2.67-0.02l-2.78-0.02
	l-0.96-1.21c-0.5-0.63-1.42-1.78-2.03-2.55c-0.53-0.67-0.81-1.02-0.97-1.24h0.01c-0.09-0.11-0.12-0.19-0.14-0.25
	c-0.02-0.03-0.03-0.06-0.04-0.1c-0.01-0.03-0.01-0.08,0.01-0.12c0.01-0.03,0.02-0.09,0.04-0.21c0.02-0.13,0.05-0.3,0.09-0.51
	c0.07-0.41,0.18-0.97,0.29-1.55l0.4-2.15l1.92-1.93l1.91-1.92l2.32-1.07l2.32-1.06l3.73-0.36l3.75-0.37L34.86,13.91z M31.31,11.86
	c-2.96-0.01-5.88,0.41-8.42,1.22c-5.91,1.9-10.69,5.64-12.96,10.12c-2.67,5.26-2.01,10.78,1.09,15.29c3.1,4.51,8.65,8.01,15.77,9.2
	c2.44,0.4,6.04,0.44,8.54,0.09c8.89-1.25,16.01-6.38,18.36-13.17c1.56-4.53,0.78-9.27-2.3-13.7c-0.94-1.36-3.85-4.04-5.45-5.02
	c-1.81-1.11-5.18-2.59-6.94-3.06C36.56,12.18,33.92,11.86,31.31,11.86z M31.31,11.86l0.18,0.18h-0.38L31.31,11.86z M39.97,1.06
	l0.15,0.16h-0.19C39.94,1.22,39.97,1.09,39.97,1.06z M28.3,0.92h0.18C28.42,0.92,28.36,0.92,28.3,0.92L28.3,0.92z M28.57,0.82
	l0.09,0.09c-0.06,0-0.12,0-0.18,0L28.57,0.82z M31.33,0.68c-0.17,0-0.34,0.01-0.5,0.01c-0.73,0.01-1.45,0.02-2.16,0.03
	c-0.07,0-0.13,0-0.19,0c-0.65,0.02-1.3,0.05-1.95,0.07c-0.07,0-0.14,0-0.21,0.01c-0.58,0.03-1.15,0.06-1.72,0.1
	c-0.16,0.01-0.3,0.02-0.45,0.03c-0.5,0.03-0.99,0.07-1.47,0.12c-0.2,0.02-0.39,0.03-0.59,0.05c-0.44,0.04-0.88,0.09-1.3,0.14
	c-0.17,0.02-0.34,0.04-0.5,0.06c-0.45,0.06-0.9,0.12-1.32,0.18c-1.12,0.17-2.16,0.36-3.07,0.58c-0.18,0.04-0.34,0.09-0.5,0.14
	c-0.04,0.01-0.06,0.02-0.08,0.02c-2.8,0.69-5.15,1.71-7.1,3.27c-1.07,0.86-2,1.84-2.8,2.94c-1.06,1.31-1.95,2.8-2.63,4.46
	C1.55,15.99,1.2,19.39,1,25.34c-0.04,0.88-0.07,1.79-0.09,2.72c0,0.07,0,0.13,0,0.2c0,0.56-0.03,1.14-0.03,1.72
	c0,0.31-0.01,0.62-0.01,0.93v0.01c0,0.02,0,0.05,0,0.07c0,0.03,0,0.05,0,0.07c0,0.31,0,0.62,0.01,0.93c0,0.58,0,1.16,0.03,1.74
	c0,0.05,0,0.11,0,0.17v0.02c0.02,0.92,0.05,1.83,0.09,2.72c0.2,5.95,0.55,9.34,1.79,12.43c0.68,1.67,1.57,3.16,2.63,4.47
	c0.8,1.1,1.72,2.08,2.79,2.93c0.65,0.52,1.35,0.97,2.09,1.37c0.02,0.01,0.03,0.02,0.05,0.03l0.23-0.28
	c-1.72-1.83-2.82-3.89-3.12-6.08c-0.03-0.22-0.06-0.76-0.09-1.57c-0.04-0.81-0.08-1.86-0.12-2.97c-0.09-2.23-0.18-4.73-0.27-6.17
	c-0.2-3.39-0.32-5.95-0.56-7.16c-1.27-6.36,0.65-12.03,5.68-16.8c3.46-3.27,8.11-5.51,13.65-6.6c1.38-0.27,3.47-0.41,5.53-0.43
	c2.07-0.01,4.1,0.1,5.38,0.35c6.04,1.22,10.01,3.09,13.76,6.52c2.86,2.61,4.59,5.27,5.64,8.63c0.68,2.16,0.84,5.43,0.39,7.59
	c-0.31,1.45-0.57,5.72-0.92,11.38c-0.06,0.98-0.15,2.97-0.24,4.8c-0.05,0.91-0.09,1.78-0.14,2.45c-0.03,0.34-0.05,0.63-0.07,0.85
	c-0.02,0.24-0.03,0.36-0.07,0.49c-0.52,1.7-1.49,3.28-2.8,4.7l0.23,0.28c0.02-0.01,0.03-0.02,0.04-0.03
	c0.72-0.42,1.41-0.89,2.09-1.42c0.71-0.57,1.36-1.21,1.95-1.9c1.1-1.15,2.03-2.46,2.74-3.92c0.97-1.99,1.51-3.94,1.86-6.49v-0.01
	c0.44-2.67,0.56-5.52,0.64-8.48v0c0.03-0.56,0.05-1.1,0.06-1.67c0-0.1,0-0.19,0-0.28c0-0.55,0.03-1.1,0.03-1.66
	c0-0.28,0-0.57,0-0.85c0-0.04,0-0.09,0-0.13c0-0.05,0-0.09,0-0.14c0-0.28,0-0.57,0-0.86c0-0.55,0-1.1-0.03-1.66v0
	c0-0.09,0-0.17,0-0.27c0-0.58-0.04-1.12-0.06-1.67c-0.07-2.97-0.19-5.82-0.64-8.48v-0.01c-0.35-2.54-0.89-4.5-1.86-6.49
	c-0.71-1.46-1.64-2.77-2.74-3.92c-0.59-0.69-1.24-1.33-1.95-1.9c-2.75-2.19-5.77-3.35-10.22-4h-0.01c-0.12-0.02-0.24-0.03-0.35-0.05
	c-0.21-0.03-0.41-0.06-0.62-0.09c-0.4-0.06-0.81-0.11-1.22-0.16c-0.13-0.02-0.26-0.03-0.4-0.05c-0.59-0.07-1.19-0.13-1.8-0.18
	c0,0-0.01-0.01-0.02-0.01c0,0,0,0-0.01,0c0,0,0,0,0,0c-0.01,0-0.02,0-0.03,0h-0.02c-0.01,0-0.03-0.01-0.03-0.01h-0.02
	c-0.51-0.04-1.03-0.08-1.55-0.11c-0.88-0.06-1.77-0.11-2.68-0.14c-0.18-0.01-0.36-0.01-0.53-0.02h-0.01
	c-0.81-0.03-1.62-0.05-2.45-0.06c-0.14,0-0.28-0.01-0.43-0.01h-0.02c-0.03,0-0.06,0-0.1,0c-0.11,0-0.23,0-0.34,0
	c-0.11,0-0.22,0-0.33,0H31.33z"/>
<path class="st1" d="M113.59,36.77v0.55c0,4.17-2.06,5.31-4.81,5.31c-1.83,0-3.21-0.96-3.21-2.43
	C105.57,37.82,108.78,37.18,113.59,36.77z M167.09,28.89c2.7,0,4.9,1.69,4.9,6.5c0,4.76-2.1,6.59-4.9,6.59
	c-2.84,0-4.94-1.83-4.94-6.59C162.14,30.59,164.34,28.89,167.09,28.89z M140.09,24.12v5.31h4.31v17.41h7.01V24.12H140.09z
	 M196.41,23.48c-3.48,0-6,1.97-7.01,3.66l-0.87-3.02h-6.09v22.72h6.96V35.16c0-4.12,1.28-6.27,4.21-6.27c3.34,0,3.48,2.66,3.48,5.86
	v12.09h6.96V33.01C204.05,26.88,202.27,23.48,196.41,23.48z M167.09,23.48c-6.32,0-12.04,3.71-12.04,11.91c0,8.19,5.72,12,12.04,12
	c6.23,0,12-3.8,12-12C179.09,27.2,173.31,23.48,167.09,23.48z M110.25,23.48c-5.22,0-8.89,2.29-10.4,5.31l5.86,2.11
	c0.46-1.83,2.02-2.7,3.94-2.7c2.43,0,3.8,0.96,3.8,3.57v0.87c-8.79,0.64-15.07,2.52-15.07,8.06c0,4.12,3.53,6.68,7.83,6.68
	c3.25,0,5.91-0.91,7.6-3.3l0.82,2.75h6.46c-0.46-1.97-0.78-5.91-0.78-8.89v-4.99C120.32,26.1,116.7,23.48,110.25,23.48z
	 M77.89,22.34h4.76c3.39,0,6,0.64,6,3.48s-2.61,3.44-6,3.44h-4.76V22.34z M126.54,18.45v5.68h-3.75v5.31h3.75v10.99
	c0,5.36,1.92,6.41,7.51,6.41h4.39v-5.68h-2.02c-2.24,0-2.93-0.41-2.93-2.57v-9.16h4.95v-5.31h-4.95v-5.68H126.54z M70.66,16.25
	v30.59h7.24V35.3h3.25l8.29,11.54h8.38l-8.88-12.32c5.82-1.56,7.37-5.31,7.37-8.79c0-7.6-5.95-9.48-13.88-9.48H70.66z M147.56,12.77
	c-0.74,0-1.49,0.06-1.96,0.18c-0.68,0.17-1.24,0.61-1.53,1.22c-0.23,0.47-0.3,0.87-0.35,1.83c-0.03,0.69,0,1.62,0.07,2.14
	c0.11,0.75,0.4,1.32,0.87,1.71c0.53,0.43,1.1,0.58,2.33,0.63c0.25,0.01,0.46,0.02,0.47,0.02c0.06,0.01,1.2-0.05,1.41-0.07
	c0.7-0.08,1.19-0.25,1.59-0.58c0.48-0.38,0.77-0.93,0.88-1.67c0.06-0.45,0.1-1.19,0.08-1.87c-0.03-1.03-0.09-1.5-0.27-1.96
	c-0.29-0.73-0.86-1.22-1.63-1.41C149.05,12.83,148.3,12.77,147.56,12.77L147.56,12.77z"/>
<path class="st0" d="M222.2,23.9l3.94,11.63h-7.79L222.2,23.9z M240.63,16.25v5.68h4.31v19.23h-4.31v5.68h15.75v-5.68h-4.21V21.93
	h4.21v-5.68H240.63z M218.26,16.25l-11.59,30.59h7.88l1.83-5.45h11.72l1.83,5.45h7.88l-11.59-30.59H218.26z"/>
</svg>
